<?xml version="1.0" standalone="no"?>
<!DOCTYPE svg PUBLIC "-//W3C//DTD SVG 1.1//EN" "http://www.w3.org/Graphics/SVG/1.1/DTD/svg11.dtd" >
<svg>
<metadata>
Created by FontForge 20090622 at Sat Dec 16 18:21:42 2017
 By deploy user
Gobold &#194;&#169; Situjuh Nazara. 2013. All Rights Reserved
</metadata>
<defs>
<font id="Gobold" horiz-adv-x="1053" >
  <font-face 
    font-family="Gobold"
    font-weight="400"
    font-stretch="normal"
    units-per-em="2048"
    panose-1="2 0 5 0 0 0 0 0 0 0"
    ascent="1638"
    descent="-410"
    x-height="1731"
    cap-height="1962"
    bbox="-283 -350 2219 2292"
    underline-thickness="150"
    underline-position="-142"
    unicode-range="U+001D-U+F002"
  />
<missing-glyph horiz-adv-x="1934" 
d="M1109 1729q-151 -39 -246 -144q-32 -36 -86 -117q-60 -91 -86 -124q-80 -99 -130 -139q-82 -66 -172 -66q-73 0 -124 37q-57 41 -68 115q-2 18 -2 36q0 65 31 121q44 77 123 91q20 4 37 4q27 0 48 -9q41 -18 42 -68q-11 13 -27 13q-13 0 -24 -10q-12 -12 -12 -26
q0 -35 36 -35h2q37 0 57 41q10 22 10 44q0 21 -9 43q-17 44 -57 65q-44 23 -107 23q-15 0 -31 -1q-133 -11 -214 -110v216h1009zM100 1100q78 -80 209 -80q18 0 38 2q107 9 253 154q40 40 111 119q64 71 89 94q66 61 134 61q37 0 74 -17q109 -50 221 -50q74 0 149 22
q148 44 276 163q-16 -199 -146 -369q-25 -32 -275 -290h-66q-50 0 -83 39l-106 -106h192q-234 -260 -275 -462q-11 -56 -11 -105q0 -80 29 -142q46 -99 165 -137h-239v848l45 24v41h-784v191zM387 842q93 0 132 -39q40 -39 40 -132v-675h-459v846h287zM629 844h44v-848h-44
v848zM1419 -4q250 57 415 203v-203h-415zM1834 217q-159 -89 -299 -106q-29 -3 -56 -3q-99 0 -155 47q-55 46 -55 128q0 31 8 67q32 146 190 349q75 95 108 143h186v-58h73v-567zM1620 909q123 201 123 433q0 52 -6 106q-19 160 -22 159q8 62 119 96v-794h-214zM841 1263
q-89 0 -149 -52q-52 -46 -64 -114q-3 -17 -3 -33q0 -45 25 -77q31 -42 90 -42q10 0 20 1q72 8 93 74q6 18 6 33q0 44 -43 75q-36 26 -36 57q0 6 2 13q8 38 59 50v15z" />
    <glyph glyph-name=".notdef" horiz-adv-x="1934" 
d="M1109 1729q-151 -39 -246 -144q-32 -36 -86 -117q-60 -91 -86 -124q-80 -99 -130 -139q-82 -66 -172 -66q-73 0 -124 37q-57 41 -68 115q-2 18 -2 36q0 65 31 121q44 77 123 91q20 4 37 4q27 0 48 -9q41 -18 42 -68q-11 13 -27 13q-13 0 -24 -10q-12 -12 -12 -26
q0 -35 36 -35h2q37 0 57 41q10 22 10 44q0 21 -9 43q-17 44 -57 65q-44 23 -107 23q-15 0 -31 -1q-133 -11 -214 -110v216h1009zM100 1100q78 -80 209 -80q18 0 38 2q107 9 253 154q40 40 111 119q64 71 89 94q66 61 134 61q37 0 74 -17q109 -50 221 -50q74 0 149 22
q148 44 276 163q-16 -199 -146 -369q-25 -32 -275 -290h-66q-50 0 -83 39l-106 -106h192q-234 -260 -275 -462q-11 -56 -11 -105q0 -80 29 -142q46 -99 165 -137h-239v848l45 24v41h-784v191zM387 842q93 0 132 -39q40 -39 40 -132v-675h-459v846h287zM629 844h44v-848h-44
v848zM1419 -4q250 57 415 203v-203h-415zM1834 217q-159 -89 -299 -106q-29 -3 -56 -3q-99 0 -155 47q-55 46 -55 128q0 31 8 67q32 146 190 349q75 95 108 143h186v-58h73v-567zM1620 909q123 201 123 433q0 52 -6 106q-19 160 -22 159q8 62 119 96v-794h-214zM841 1263
q-89 0 -149 -52q-52 -46 -64 -114q-3 -17 -3 -33q0 -45 25 -77q31 -42 90 -42q10 0 20 1q72 8 93 74q6 18 6 33q0 44 -43 75q-36 26 -36 57q0 6 2 13q8 38 59 50v15z" />
    <glyph glyph-name=".null" horiz-adv-x="0" 
 />
    <glyph glyph-name=".null" horiz-adv-x="0" 
 />
    <glyph glyph-name="nonmarkingreturn" horiz-adv-x="508" 
 />
    <glyph glyph-name="space" unicode=" " horiz-adv-x="508" 
 />
    <glyph glyph-name="space" unicode="&#xa0;" horiz-adv-x="508" 
 />
    <glyph glyph-name="exclam" unicode="!" horiz-adv-x="565" 
d="M445 1962l-21 -1432h-283l-21 1432h325zM120 325h325v-325h-325v325z" />
    <glyph glyph-name="quotedbl" unicode="&#x22;" horiz-adv-x="968" 
d="M552 1963h296l-34 -652h-228zM120 1963h296l-34 -652h-228z" />
    <glyph glyph-name="numbersign" unicode="#" horiz-adv-x="1349" 
d="M284 883l51 257h-213v153h244l133 670h237l-133 -670h245l133 670h237l-133 -670h184v-153h-215l-51 -257h224v-153h-255l-145 -730h-237l145 730h-245l-145 -730h-237l145 730h-173v153h204zM572 1140l-51 -257h245l51 257h-245z" />
    <glyph glyph-name="dollar" unicode="$" 
d="M120 1613q0 358 290 404v176h232v-176q291 -46 291 -404v-264h-284v264q0 132 -122 133h-2q-122 0 -122 -133v-178q0 -132 265 -321t265 -453v-248q0 -359 -291 -404v-239h-232v239q-290 46 -290 404v263h283v-263q0 -133 123 -133t123 133v223q0 143 -264 332
q-265 190 -265 461v184z" />
    <glyph glyph-name="percent" unicode="%" horiz-adv-x="1697" 
d="M602 1079q0 -242 -238 -242q-239 0 -239 242v704q0 242 239 242q238 0 238 -242v-704zM1572 243q0 -242 -239 -242h-2q-236 0 -236 242v704q0 242 238 242q239 0 239 -242v-704zM1406 947q0 78 -72 78h-2q-71 0 -71 -78v-704q0 -78 72 -78q73 0 73 78v704zM1281 1963
l-722 -1963h-176l723 1963h175zM436 1783q0 78 -72 78h-2q-71 0 -71 -78v-704q0 -78 73 -78q72 0 72 78v704z" />
    <glyph glyph-name="ampersand" unicode="&#x26;" horiz-adv-x="1183" 
d="M524 279q126 1 126 134v460h-105q-45 -1 -65 -9q-77 -30 -77 -124v-327q0 -134 116 -134h5zM650 1152v134h283v-134h180v-279h-180v-460q0 -412 -410 -412q-403 0 -403 412v327q0 193 155 273q-155 80 -155 273v295q0 413 405 413q408 0 408 -413v-84h-283v84
q0 120 -121 135q-126 -12 -126 -135v-295q0 -94 77 -125q20 -8 65 -9h105z" />
    <glyph glyph-name="quotesingle" unicode="'" horiz-adv-x="536" 
d="M120 1963h296l-34 -652h-228z" />
    <glyph glyph-name="parenleft" unicode="(" horiz-adv-x="544" 
d="M514 -247q-394 5 -394 413v1632q0 407 394 412v-232q-111 -3 -111 -134v-1725q0 -130 111 -133v-233z" />
    <glyph glyph-name="parenright" unicode=")" horiz-adv-x="544" 
d="M30 -14q111 3 111 133v1725q0 131 -111 134v232q394 -5 394 -412v-1632q0 -408 -394 -413v233z" />
    <glyph glyph-name="asterisk" unicode="*" horiz-adv-x="1012" 
d="M534 1661q125 133 186 161q33 16 61 16q67 0 99 -95q12 -36 12 -65q0 -81 -100 -96q-16 -2 -37 -2q-70 0 -201 26q166 -78 211 -127q38 -40 38 -79q0 -51 -64 -98q-50 -37 -90 -37q-55 0 -90 71q-31 62 -51 234q-23 -182 -56 -240q-35 -64 -89 -64q-38 0 -87 34
q-67 48 -67 98q0 41 44 84q49 49 206 120q-130 -25 -200 -25q-27 0 -45 4q-94 18 -94 98q0 27 11 61q30 97 98 97q30 0 68 -19q61 -32 178 -159q-88 160 -96 226q-1 12 -1 23q0 104 126 105h4q125 0 125 -99q0 -16 -3 -34q-12 -69 -96 -219z" />
    <glyph glyph-name="plus" unicode="+" horiz-adv-x="1047" 
d="M408 865h-288v233h288v287h232v-287h287v-233h-287v-287h-232v287z" />
    <glyph glyph-name="comma" unicode="," horiz-adv-x="591" 
d="M120 325h351v-287l-108 -365h-183l58 327h-118v325z" />
    <glyph glyph-name="hyphen" unicode="-" horiz-adv-x="786" 
d="M50 841v233h686v-233h-686z" />
    <glyph glyph-name="hyphen" unicode="&#xad;" horiz-adv-x="786" 
d="M50 841v233h686v-233h-686z" />
    <glyph glyph-name="period" unicode="." horiz-adv-x="565" 
d="M120 325h325v-325h-325v325z" />
    <glyph glyph-name="slash" unicode="/" horiz-adv-x="748" 
d="M688 1963l-391 -1963h-237l391 1963h237z" />
    <glyph glyph-name="zero" unicode="0" 
d="M933 381q0 -412 -407 -412q-406 0 -406 412v1200q0 413 406 413q407 0 407 -413v-1200zM650 1581q0 133 -123 133h-2q-122 0 -122 -133v-1200q0 -133 123 -133q124 0 124 133v1200z" />
    <glyph glyph-name="one" unicode="1" horiz-adv-x="1073" 
d="M678 1962v-1683h265v-279h-813v279h265v1404h-265v279h548z" />
    <glyph glyph-name="two" unicode="2" horiz-adv-x="1073" 
d="M130 421q0 265 264 454q265 189 266 321v385q0 133 -122 133h-2q-123 0 -123 -133v-263h-283v263q0 413 406 413q407 0 407 -413v-392q0 -270 -265 -460q-265 -189 -265 -332v-118h530v-279h-813v421z" />
    <glyph glyph-name="three" unicode="3" horiz-adv-x="1073" 
d="M660 1581q0 132 -123 133h-2q-122 0 -122 -133v-263h-283v263q0 412 406 412q407 0 407 -412v-341q0 -193 -155 -273q155 -80 155 -273v-313q0 -412 -407 -412q-406 0 -406 412v263h283v-263q0 -133 122 -133h2q123 1 123 133v313q0 107 -45 127q-24 10 -74 10h-93v279
h115q40 0 60 12q37 21 37 120v339z" />
    <glyph glyph-name="four" unicode="4" horiz-adv-x="1073" 
d="M909 1962v-1287h109v-279h-109v-396h-283v396h-574v248l496 1318h361zM331 675h295v834z" />
    <glyph glyph-name="five" unicode="5" horiz-adv-x="1073" 
d="M660 938q0 104 -44 123q-24 11 -77 11q-13 0 -27 -1q-86 -4 -96 -77l-3 -79h-283l42 1047h771v-279h-499l-20 -422q72 83 196 83q17 0 35 -2q148 -13 225 -119q63 -86 63 -285v-557q0 -412 -407 -412q-406 0 -406 412v232h283v-232q0 -133 122 -133h2q123 1 123 133v557z
" />
    <glyph glyph-name="six" unicode="6" horiz-adv-x="1073" 
d="M413 1104q79 71 195 71q21 0 43 -2q136 -14 213 -97q79 -85 79 -305v-390q0 -412 -407 -412q-406 0 -406 412v1200q0 413 406 413q407 0 407 -413v-263h-283v263q0 133 -123 133h-2q-122 0 -122 -133v-477zM660 771q0 105 -44 123q-24 11 -77 11q-13 0 -27 -1
q-99 -4 -99 -133v-390q0 -133 123 -133q124 0 124 133v390z" />
    <glyph glyph-name="seven" unicode="7" horiz-adv-x="1073" 
d="M121 1683v279h837v-201l-396 -1761h-290l378 1683h-529z" />
    <glyph glyph-name="eight" unicode="8" horiz-adv-x="1074" 
d="M537 1993q407 0 407 -412v-341q0 -193 -155 -273q155 -80 155 -273v-313q0 -412 -407 -412t-407 412v313q0 193 155 273q-155 80 -155 273v341q0 412 407 412zM538 248q123 1 123 133v313q0 107 -45 127q-24 10 -74 10h-10q-50 0 -74 -10q-45 -20 -45 -127v-313
q0 -132 123 -133h2zM564 1110q40 0 60 12q37 21 37 120v339q0 132 -123 133h-2q-123 -1 -123 -133v-339q0 -99 37 -120q20 -12 60 -12h54z" />
    <glyph glyph-name="nine" unicode="9" horiz-adv-x="1073" 
d="M660 859q-81 -72 -198 -72q-19 0 -40 2q-136 14 -213 97q-79 86 -79 305v390q0 412 407 413q406 0 406 -413v-1200q0 -412 -407 -412q-406 0 -406 412v264h283v-264q0 -132 123 -133h2q122 0 122 133v478zM413 1191q0 -104 44 -123q23 -10 75 -10q13 0 28 1
q100 3 100 132v390q0 133 -123 133q-124 0 -124 -133v-390z" />
    <glyph glyph-name="colon" unicode=":" horiz-adv-x="564" 
d="M120 1329h324v-324h-324v324zM120 325h324v-325h-324v325z" />
    <glyph glyph-name="semicolon" unicode=";" horiz-adv-x="591" 
d="M120 325h351v-287l-108 -365h-183l58 327h-118v325zM120 1329h325v-324h-325v324z" />
    <glyph glyph-name="semicolon" unicode="&#x37e;" horiz-adv-x="591" 
d="M120 325h351v-287l-108 -365h-183l58 327h-118v325zM120 1329h325v-324h-325v324z" />
    <glyph glyph-name="less" unicode="&#x3c;" horiz-adv-x="1047" 
d="M120 1120l807 452v-275l-587 -320l587 -311v-274l-807 437v291z" />
    <glyph glyph-name="equal" unicode="=" horiz-adv-x="1047" 
d="M120 1096v233h807v-233h-807zM120 633v232h807v-232h-807z" />
    <glyph glyph-name="greater" unicode="&#x3e;" horiz-adv-x="1047" 
d="M927 829l-807 -437v274l587 311l-587 320v275l807 -452v-291z" />
    <glyph glyph-name="question" unicode="?" 
d="M236 325h325v-325h-325v325zM933 1384q0 -249 -199 -447t-199 -345v-45h-283v69q0 245 199 442t199 333v190q0 133 -122 133h-2q-123 0 -123 -133v-263h-283v263q0 413 407 413q406 0 406 -413v-197z" />
    <glyph glyph-name="at" unicode="@" horiz-adv-x="1483" 
d="M1352 1303v-79q0 -272 -267 -272h-109v-344q0 -272 -268 -272q-267 0 -267 272v257q0 271 267 271h82v262q0 87 -81 87h-2q-80 0 -80 -87v-70h-186v70q0 271 267 271q268 0 268 -271v-262h109q81 0 81 88v186q0 412 -424 412q-425 0 -425 -425v-801q0 -412 425 -412
q424 0 424 424v43h187v-43q0 -607 -611 -607q-612 0 -612 595v801q0 608 612 608q611 0 611 -595v-107h-1zM692 953q-81 0 -81 -88v-257q0 -88 81 -88q82 0 82 88v344z" />
    <glyph glyph-name="A" unicode="A" horiz-adv-x="1051" 
d="M919 696l92 -696h-286l-55 416h-289l-56 -416h-285l92 693l200 1269h388zM633 696l-108 816l-108 -816h216z" />
    <glyph glyph-name="B" unicode="B" horiz-adv-x="1043" 
d="M130 1962h436q377 -1 377 -413v-295q0 -193 -155 -273q155 -80 155 -273v-296q0 -411 -395 -412h-418v1962zM413 1683v-562h89q59 0 81 8q77 31 77 125v295q0 134 -123 134h-124zM413 841v-562h124q123 0 123 133v296q0 94 -77 124q-22 9 -81 9h-89z" />
    <glyph glyph-name="C" unicode="C" horiz-adv-x="1023" 
d="M923 381q0 -412 -407 -413q-406 0 -406 413v1200q0 412 406 412q407 0 407 -412v-264h-283v264q0 132 -123 133h-2q-122 0 -122 -133v-1200q0 -133 123 -133q124 0 124 133v264h283v-264z" />
    <glyph glyph-name="D" unicode="D" 
d="M130 1962h436q377 -1 377 -413v-1137q0 -411 -395 -412h-418v1962zM413 1683v-1404h124q123 0 123 133v1137q0 134 -123 134h-124z" />
    <glyph glyph-name="E" unicode="E" horiz-adv-x="944" 
d="M130 1962h734v-279h-451v-562h388v-280h-388v-562h451v-279h-734v1962z" />
    <glyph glyph-name="F" unicode="F" horiz-adv-x="924" 
d="M130 1962h734v-279h-451v-562h388v-280h-388v-841h-283v1962z" />
    <glyph glyph-name="G" unicode="G" horiz-adv-x="1033" 
d="M923 381q0 -412 -407 -413q-406 0 -406 413v1200q0 412 406 412q407 0 407 -412v-264h-283v264q0 132 -123 133h-2q-122 0 -122 -133v-1200q0 -133 123 -133q124 0 124 133v460h-123v280h406v-740z" />
    <glyph glyph-name="H" unicode="H" horiz-adv-x="1073" 
d="M130 1962h283v-841h247v841h283v-1962h-283v841h-247v-841h-283v1962z" />
    <glyph glyph-name="I" unicode="I" horiz-adv-x="553" 
d="M135 1962h283v-1962h-283v1962z" />
    <glyph glyph-name="J" unicode="J" horiz-adv-x="973" 
d="M30 645h283v-264q0 -133 124 -133q123 0 123 133v1581h283v-1581q0 -413 -406 -413q-407 1 -407 413v264z" />
    <glyph glyph-name="K" unicode="K" horiz-adv-x="1057" 
d="M643 981l374 -981h-303l-301 872v-872h-283v1962h283v-873l301 873h303z" />
    <glyph glyph-name="L" unicode="L" horiz-adv-x="904" 
d="M130 0v1962h283v-1683h451v-279h-734z" />
    <glyph glyph-name="M" unicode="M" horiz-adv-x="1488" 
d="M746 618l329 1344h283v-1962h-271v1101l-242 -1101h-192l-249 1101v-1101h-274v1962h283z" />
    <glyph glyph-name="N" unicode="N" horiz-adv-x="1073" 
d="M130 1962h283l268 -1138v1138h262v-1962h-283l-258 1102v-1102h-272v1962z" />
    <glyph glyph-name="O" unicode="O" horiz-adv-x="1033" 
d="M923 381q0 -412 -407 -413q-406 0 -406 413v1200q0 412 406 412q407 0 407 -412v-1200zM640 1581q0 132 -123 133h-2q-122 0 -122 -133v-1200q0 -133 123 -133q124 0 124 133v1200z" />
    <glyph glyph-name="P" unicode="P" horiz-adv-x="999" 
d="M130 1962h412q377 -1 377 -413v-295q0 -304 -271 -392q-65 -21 -189 -21h-46v-841h-283v1962zM413 1683v-562h65q59 0 81 8q77 31 77 125v295q0 134 -123 134h-100z" />
    <glyph glyph-name="Q" unicode="Q" horiz-adv-x="1033" 
d="M923 381q0 -368 -310 -407q5 -64 310 -66v-236q-251 0 -345 49q-122 62 -125 250q-343 25 -343 410v1200q0 412 406 412q407 0 407 -412v-1200zM640 1581q0 132 -123 133h-2q-122 0 -122 -133v-1200q0 -133 123 -133q124 0 124 133v1200z" />
    <glyph glyph-name="R" unicode="R" horiz-adv-x="1044" 
d="M130 1962h412q377 -1 377 -413v-295q0 -259 -223 -341l318 -913h-310l-255 863l-36 -5v-858h-283v1962zM413 1683v-562h65q59 0 81 8q77 31 77 125v295q0 134 -123 134h-100z" />
    <glyph glyph-name="S" unicode="S" horiz-adv-x="1033" 
d="M110 1581q0 412 406 412q407 0 407 -412v-264h-283v264q0 132 -123 133h-2q-122 0 -122 -133v-178q0 -131 265 -321q265 -189 265 -453v-248q0 -413 -406 -413q-407 1 -407 413v264h283v-264q0 -133 124 -133q123 0 123 133v224q0 142 -265 332q-265 189 -265 460v184z
" />
    <glyph glyph-name="T" unicode="T" horiz-adv-x="913" 
d="M863 1962v-279h-265v-1683h-283v1683h-265v279h813z" />
    <glyph glyph-name="U" unicode="U" 
d="M933 381q0 -412 -407 -413q-406 0 -406 413v1581h283v-1581q0 -133 123 -133q124 0 124 133v1581h283v-1581z" />
    <glyph glyph-name="V" unicode="V" horiz-adv-x="1051" 
d="M720 0h-388l-200 1268l-92 694h286l199 -1512l200 1512h286l-92 -696z" />
    <glyph glyph-name="W" unicode="W" horiz-adv-x="1732" 
d="M1206 450l200 1512h286l-92 -696l-199 -1266h-388l-147 1013l-146 -1013h-388l-200 1268l-92 694h285l200 -1512l200 1512h281z" />
    <glyph glyph-name="X" unicode="X" horiz-adv-x="1017" 
d="M325 1962l184 -552l183 552h285l-326 -981l326 -981h-285l-183 552l-184 -552h-285l326 981l-326 981h285z" />
    <glyph glyph-name="Y" unicode="Y" horiz-adv-x="1066" 
d="M340 1962l193 -765l193 765h300l-343 -1113l-8 -24v-825h-283v825l-9 24l-343 1113h300z" />
    <glyph glyph-name="Z" unicode="Z" horiz-adv-x="880" 
d="M783 1792l-384 -1513h401v-279h-720v170l384 1513h-371v279h690v-170z" />
    <glyph glyph-name="bracketleft" unicode="[" horiz-adv-x="547" 
d="M517 2210v-232h-154v-1992h154v-233h-387v2457h387z" />
    <glyph glyph-name="backslash" unicode="\" horiz-adv-x="748" 
d="M297 1963l391 -1963h-237l-391 1963h237z" />
    <glyph glyph-name="bracketright" unicode="]" horiz-adv-x="547" 
d="M417 2210v-2457h-387v233h154v1992h-154v232h387z" />
    <glyph glyph-name="asciicircum" unicode="^" horiz-adv-x="1157" 
d="M706 1979l351 -807h-254l-225 517l-224 -517h-254l351 807h255z" />
    <glyph glyph-name="underscore" unicode="_" horiz-adv-x="1032" 
d="M0 -318v211h1032v-211h-1032z" />
    <glyph glyph-name="grave" unicode="`" horiz-adv-x="624" 
d="M130 2058h222l142 -253h-157z" />
    <glyph glyph-name="a" unicode="a" horiz-adv-x="1051" 
d="M919 615l92 -615h-286l-55 368h-289l-56 -368h-285l92 613l200 1121h388zM633 615l-108 722l-108 -722h216z" />
    <glyph glyph-name="b" unicode="b" horiz-adv-x="1043" 
d="M130 1734h436q377 0 377 -365v-260q0 -171 -155 -242q155 -71 155 -241v-262q0 -363 -395 -364h-418v1734zM413 1488v-497h89q59 0 81 7q77 27 77 111v260q0 119 -123 119h-124zM413 743v-496h124q123 0 123 117v262q0 83 -77 109q-22 8 -81 8h-89z" />
    <glyph glyph-name="c" unicode="c" horiz-adv-x="1023" 
d="M923 333q0 -364 -407 -365q-406 0 -406 365v1061q0 364 406 364q407 0 407 -364v-233h-283v233q0 117 -123 117h-2q-122 0 -122 -117v-1061q0 -117 123 -117q124 0 124 117v233h283v-233z" />
    <glyph glyph-name="d" unicode="d" 
d="M130 1734h436q377 0 377 -365v-1005q0 -363 -395 -364h-418v1734zM413 1488v-1241h124q123 0 123 117v1005q0 119 -123 119h-124z" />
    <glyph glyph-name="e" unicode="e" horiz-adv-x="944" 
d="M130 1734h734v-246h-451v-497h388v-248h-388v-496h451v-247h-734v1734z" />
    <glyph glyph-name="f" unicode="f" horiz-adv-x="924" 
d="M130 1734h734v-246h-451v-497h388v-248h-388v-743h-283v1734z" />
    <glyph glyph-name="g" unicode="g" horiz-adv-x="1033" 
d="M923 333q0 -364 -407 -365q-406 0 -406 365v1061q0 364 406 364q407 0 407 -364v-233h-283v233q0 117 -123 117h-2q-122 0 -122 -117v-1061q0 -117 123 -117q124 0 124 117v407h-123v247h406v-654z" />
    <glyph glyph-name="h" unicode="h" horiz-adv-x="1073" 
d="M130 1734h283v-743h247v743h283v-1734h-283v743h-247v-743h-283v1734z" />
    <glyph glyph-name="i" unicode="i" horiz-adv-x="553" 
d="M135 1734h283v-1734h-283v1734z" />
    <glyph glyph-name="j" unicode="j" horiz-adv-x="973" 
d="M30 566h283v-233q0 -117 124 -117q123 0 123 117v1398h283v-1398q0 -365 -406 -365q-407 1 -407 365v233z" />
    <glyph glyph-name="k" unicode="k" horiz-adv-x="1057" 
d="M643 867l374 -867h-303l-301 771v-771h-283v1734h283v-771l301 771h303z" />
    <glyph glyph-name="l" unicode="l" horiz-adv-x="904" 
d="M130 0v1734h283v-1487h451v-247h-734z" />
    <glyph glyph-name="m" unicode="m" horiz-adv-x="1488" 
d="M746 546l329 1188h283v-1734h-271v973l-242 -973h-192l-249 973v-973h-274v1734h283z" />
    <glyph glyph-name="n" unicode="n" horiz-adv-x="1073" 
d="M130 1734h283l268 -1006v1006h262v-1734h-283l-258 974v-974h-272v1734z" />
    <glyph glyph-name="o" unicode="o" horiz-adv-x="1033" 
d="M923 333q0 -364 -407 -365q-406 0 -406 365v1061q0 364 406 364q407 0 407 -364v-1061zM640 1394q0 117 -123 117h-2q-122 0 -122 -117v-1061q0 -117 123 -117q124 0 124 117v1061z" />
    <glyph glyph-name="p" unicode="p" horiz-adv-x="999" 
d="M130 1734h412q377 0 377 -365v-260q0 -269 -271 -347q-65 -19 -189 -19h-46v-743h-283v1734zM413 1488v-497h65q59 0 81 7q77 27 77 111v260q0 119 -123 119h-100z" />
    <glyph glyph-name="q" unicode="q" horiz-adv-x="1033" 
d="M923 299q0 -326 -310 -360q5 -57 310 -58v-209q-251 0 -345 43q-122 55 -125 221q-343 22 -343 363v1061q0 364 406 364q407 0 407 -364v-1061zM640 1360q0 116 -123 117h-2q-122 0 -122 -117v-1061q0 -118 123 -118q124 0 124 118v1061z" />
    <glyph glyph-name="r" unicode="r" horiz-adv-x="1044" 
d="M130 1734h412q377 0 377 -365v-260q0 -229 -223 -302l318 -807h-310l-255 763l-36 -5v-758h-283v1734zM413 1488v-497h65q59 0 81 7q77 27 77 111v260q0 119 -123 119h-100z" />
    <glyph glyph-name="s" unicode="s" horiz-adv-x="1033" 
d="M110 1394q0 364 406 364q407 0 407 -364v-233h-283v233q0 117 -123 117h-2q-122 0 -122 -117v-157q0 -116 265 -284q265 -167 265 -401v-219q0 -365 -406 -365q-407 1 -407 365v233h283v-233q0 -117 124 -117q123 0 123 117v198q0 126 -265 294q-265 167 -265 406v163z
" />
    <glyph glyph-name="t" unicode="t" horiz-adv-x="913" 
d="M863 1734v-246h-265v-1488h-283v1488h-265v246h813z" />
    <glyph glyph-name="u" unicode="u" 
d="M933 333q0 -364 -407 -365q-406 0 -406 365v1398h283v-1398q0 -117 123 -117q124 0 124 117v1398h283v-1398z" />
    <glyph glyph-name="v" unicode="v" horiz-adv-x="1051" 
d="M720 0h-388l-200 1121l-92 613h286l199 -1336l200 1336h286l-92 -615z" />
    <glyph glyph-name="w" unicode="w" horiz-adv-x="1732" 
d="M1206 398l200 1336h286l-92 -615l-199 -1119h-388l-147 895l-146 -895h-388l-200 1121l-92 613h285l200 -1336l200 1336h281z" />
    <glyph glyph-name="x" unicode="x" horiz-adv-x="1017" 
d="M325 1734l184 -488l183 488h285l-326 -867l326 -867h-285l-183 488l-184 -488h-285l326 867l-326 867h285z" />
    <glyph glyph-name="y" unicode="y" horiz-adv-x="1066" 
d="M340 1734l193 -676l193 676h300l-343 -983l-8 -22v-729h-283v729l-9 22l-343 983h300z" />
    <glyph glyph-name="z" unicode="z" horiz-adv-x="880" 
d="M783 1584l-384 -1337h401v-247h-720v150l384 1338h-371v246h690v-150z" />
    <glyph glyph-name="braceleft" unicode="{" horiz-adv-x="545" 
d="M515 -247q-394 5 -394 413v566q0 131 -111 133v233q111 3 111 133v567q0 407 394 412v-232q-111 -3 -111 -134v-566q0 -199 -79 -296q79 -98 79 -297v-566q0 -130 111 -133v-233z" />
    <glyph glyph-name="bar" unicode="|" horiz-adv-x="512" 
d="M140 2290h232v-2617h-232v2617z" />
    <glyph glyph-name="braceright" unicode="}" horiz-adv-x="545" 
d="M30 -14q111 3 111 133v566q0 199 79 297q-79 97 -79 296v566q0 131 -111 134v232q394 -5 394 -412v-567q0 -130 111 -133v-233q-111 -2 -111 -133v-566q0 -408 -394 -413v233z" />
    <glyph glyph-name="asciitilde" unicode="~" horiz-adv-x="1100" 
d="M268 831l-168 109l54 83q99 154 232 154h10q88 -4 224 -106q68 -51 112 -51q31 0 50 24l62 78l156 -124l-62 -78q-90 -114 -204 -114h-12q-88 4 -222 105q-79 60 -96 63q-4 1 -9 1q-34 0 -73 -60z" />
    <glyph glyph-name="exclamdown" unicode="&#xa1;" horiz-adv-x="565" 
d="M120 -233l21 1432h283l21 -1432h-325zM445 1404h-325v325h325v-325z" />
    <glyph glyph-name="cent" unicode="&#xa2;" horiz-adv-x="1073" 
d="M403 609l246 805q-11 96 -122 97q-124 0 -124 -118v-784zM435 247q30 -28 91 -28q124 0 124 117v233h283v-233q0 -363 -407 -363q-96 0 -169 20l-98 -320l-139 9l113 372q-113 90 -113 282v1057q0 364 406 364q128 0 216 -36l71 231l140 -9l-94 -306q74 -89 74 -244v-232
h-219z" />
    <glyph glyph-name="sterling" unicode="&#xa3;" horiz-adv-x="1126" 
d="M536 918v-366q0 -177 -62 -273h513v-279h-927v279h69q124 0 124 134v505h-193v158h193v505q0 413 406 413q407 0 407 -413v-263h-283v263q0 133 -123 133h-2q-122 0 -122 -133v-505h331v-158h-331z" />
    <glyph glyph-name="currency" unicode="&#xa4;" horiz-adv-x="1398" 
d="M1106 848q0 -57 -7 -106l169 -168l-170 -171l-110 111q-97 -78 -289 -78t-288 77l-110 -110l-171 171l169 168q-6 48 -6 106v267q0 48 4 89l-167 167l171 170l100 -100q96 87 298 87t299 -87l100 100l170 -170l-167 -167q5 -41 5 -89v-267zM823 1115q0 132 -123 133h-2
q-122 0 -122 -133v-267q0 -133 123 -133q124 0 124 133v267z" />
    <glyph glyph-name="yen" unicode="&#xa5;" horiz-adv-x="1186" 
d="M404 976l-304 986h300l193 -764l193 764h300l-304 -986h215v-158h-262v-159h262v-159h-262v-500h-283v500h-262v159h262v159h-262v158h214z" />
    <glyph glyph-name="brokenbar" unicode="&#xa6;" horiz-adv-x="512" 
d="M140 1729h232v-743h-232v743zM140 784h232v-784h-232v784z" />
    <glyph glyph-name="section" unicode="&#xa7;" 
d="M529 -327q-386 0 -386 380v106h283v-106q0 -123 113 -123q110 0 110 123q0 192 -264 352q-265 159 -265 503q0 273 188 346q-188 126 -188 384q0 356 403 356q386 0 386 -356v-100h-283v100q0 115 -112 115q-111 0 -111 -115q0 -180 265 -330t265 -472q0 -285 -241 -340
q241 -148 241 -443q0 -380 -404 -380zM653 896q0 143 -133 144h-2q-132 0 -132 -144v-41q0 -144 133 -144q134 0 134 144v41z" />
    <glyph glyph-name="dieresis" unicode="&#xa8;" horiz-adv-x="899" 
d="M130 2048h242v-242h-242v242zM526 2048h243v-242h-243v242z" />
    <glyph glyph-name="copyright" unicode="&#xa9;" horiz-adv-x="1463" 
d="M1343 608q0 -607 -612 -607q-611 0 -611 595v801q0 608 611 608q612 0 612 -595v-802zM1156 1410q0 412 -424 412q-425 0 -425 -425v-801q0 -412 424 -412q425 0 425 424v802zM1004 604q0 -275 -271 -275q-270 0 -270 275v798q0 274 270 274q271 0 271 -274v-77h-189v77
q0 88 -81 89q-83 0 -83 -89v-798q0 -89 82 -89t82 89v76h189v-76z" />
    <glyph glyph-name="ordfeminine" unicode="&#xaa;" horiz-adv-x="761" 
d="M640 1293l61 -368h-189l-36 221h-191l-37 -221h-188l61 367l132 670h256zM451 1293l-71 431l-71 -431h142zM67 521v193h619v-193h-619z" />
    <glyph glyph-name="guillemotleft" unicode="&#xab;" horiz-adv-x="1305" 
d="M686 1179l-224 -190l224 -184v-320l-556 517l556 507v-330zM1175 1179l-224 -190l224 -184v-320l-556 517l556 507v-330z" />
    <glyph glyph-name="logicalnot" unicode="&#xac;" horiz-adv-x="1067" 
d="M130 865v233h807v-520h-232v287h-575z" />
    <glyph glyph-name="registered" unicode="&#xae;" horiz-adv-x="1463" 
d="M1343 608q0 -607 -612 -607q-611 0 -611 595v801q0 608 611 608q612 0 612 -595v-802zM1156 1410q0 412 -424 412q-425 0 -425 -425v-801q0 -412 424 -412q425 0 425 424v802zM458 1656l278 -1h12q251 0 251 -274v-197q0 -128 -103 -181q103 -53 103 -182v-471h-188v471
q0 62 -51 83q-15 6 -55 6h-59v-560h-188v1306zM646 1470v-374h59q40 0 55 6q51 20 51 82v197q0 89 -82 89h-83z" />
    <glyph glyph-name="macron" unicode="&#xaf;" horiz-adv-x="1208" 
d="M0 1752v211h1208v-211h-1208z" />
    <glyph glyph-name="degree" unicode="&#xb0;" horiz-adv-x="877" 
d="M747 1741q0 -309 -309 -309q-308 0 -308 309q0 308 308 308q309 0 309 -308zM438 1866q-125 0 -125 -125q0 -126 125 -126q126 0 126 126q0 125 -126 125z" />
    <glyph glyph-name="plusminus" unicode="&#xb1;" horiz-adv-x="1047" 
d="M408 865h-288v233h288v287h232v-287h287v-233h-287v-287h-232v287zM925 372v-212h-805v212h805z" />
    <glyph glyph-name="uni00B2" unicode="&#xb2;" horiz-adv-x="674" 
d="M100 1077q0 154 154 265q154 110 155 187v224q0 78 -71 78h-1q-72 0 -72 -78v-153h-165v153q0 241 237 241t237 -241v-228q0 -158 -155 -269q-154 -110 -154 -193v-69h309v-163h-474v246z" />
    <glyph glyph-name="uni00B3" unicode="&#xb3;" horiz-adv-x="679" 
d="M414 1261q0 63 -26 75q-15 6 -44 6h-57v164h70q23 0 35 7q22 13 22 71v172q0 63 -26 75q-15 6 -46 6q-8 0 -17 -1q-60 -2 -60 -80v-154h-165v155q0 168 97 218q68 35 139 35q66 0 135 -31q108 -46 108 -222v-174q0 -114 -91 -161q91 -47 91 -161v-210q0 -151 -78 -206
q-49 -35 -153 -38h-14q-92 0 -143 30q-91 52 -91 214v155h165v-156q0 -80 74 -80q75 0 75 80v211z" />
    <glyph glyph-name="acute" unicode="&#xb4;" horiz-adv-x="624" 
d="M287 1805h-157l142 253h222z" />
    <glyph glyph-name="mu" unicode="&#xb5;" horiz-adv-x="1063" 
d="M413 380q0 -132 123 -132q124 0 124 133v1254h283v-1254q0 -373 -319 -408q-19 -2 -37 -2q-93 0 -174 53v-351h-283v1962h283v-1255z" />
    <glyph glyph-name="paragraph" unicode="&#xb6;" horiz-adv-x="1170" 
d="M1040 1963v-1963h-201v1762h-223v-1762h-201v1021q-194 0 -246 39q-69 52 -69 250v354q0 199 71 255q55 44 244 44h625z" />
    <glyph glyph-name="periodcentered" unicode="&#xb7;" horiz-adv-x="508" 
d="M119.997 1119.24h276.242v-276.242h-276.242v276.242z" />
    <glyph glyph-name="periodcentered" unicode="&#x2219;" horiz-adv-x="508" 
d="M119.997 1119.24h276.242v-276.242h-276.242v276.242z" />
    <glyph glyph-name="cedilla" unicode="&#xb8;" horiz-adv-x="634" 
d="M299 -86q37 20 69 20q31 0 57 -20q28 -20 28 -70v-99q0 -85 -103 -93q-15 -2 -34 -2q-10 0 -20 1q-119 3 -119 94v29h118v-29q0 -15 20 -15t20 15v99q0 17 -18 18h-2q-17 0 -24 -17h-113l31 156h121z" />
    <glyph glyph-name="uni00B9" unicode="&#xb9;" horiz-adv-x="1073" 
d="M446 1962v-971h153v-161h-469v161h153v810h-153v161h316z" />
    <glyph glyph-name="ordmasculine" unicode="&#xba;" horiz-adv-x="777" 
d="M657 1110q0 -218 -269 -218q-268 0 -268 218v634q0 218 268 218q269 0 269 -218v-634zM470 1744q0 70 -81 71q-82 0 -82 -71v-634q0 -71 81 -71q82 0 82 71v634zM130 506v175h516v-175h-516z" />
    <glyph glyph-name="guillemotright" unicode="&#xbb;" horiz-adv-x="1305" 
d="M130 1509l556 -507l-556 -517v320l224 184l-224 190v330zM619 1509l556 -507l-556 -517v320l224 184l-224 190v330z" />
    <glyph glyph-name="onequarter" unicode="&#xbc;" horiz-adv-x="1609" 
d="M1446 1125v-689h63v-160h-63v-276h-162v276h-329v142l284 707h207zM1115 436h169v429zM1337 1963l-722 -1963h-176l723 1963h175zM436 1962v-971h153v-161h-469v161h153v810h-153v161h316z" />
    <glyph glyph-name="onehalf" unicode="&#xbd;" horiz-adv-x="1685" 
d="M1277 1963l-722 -1963h-176l723 1963h175zM376 1962v-971h153v-161h-469v161h153v810h-153v161h316zM1111 246q0 154 154 265q154 110 155 187v224q0 78 -71 78h-1q-72 0 -72 -78v-153h-165v153q0 241 237 241t237 -241v-228q0 -158 -155 -269q-154 -110 -154 -193v-69
h309v-163h-474v246z" />
    <glyph glyph-name="threequarters" unicode="&#xbe;" horiz-adv-x="1549" 
d="M1386 1125v-689h63v-160h-63v-276h-162v276h-329v142l284 707h207zM1055 436h169v429zM1277 1963l-722 -1963h-176l723 1963h175zM414 1261q0 63 -26 75q-15 6 -44 6h-57v164h70q23 0 35 7q22 13 22 71v172q0 63 -26 75q-15 6 -46 6q-8 0 -17 -1q-60 -2 -60 -80v-154
h-165v155q0 168 97 218q68 35 139 35q66 0 135 -31q108 -46 108 -222v-174q0 -114 -91 -161q91 -47 91 -161v-210q0 -151 -78 -206q-49 -35 -153 -38h-14q-92 0 -143 30q-91 52 -91 214v155h165v-156q0 -80 74 -80q75 0 75 80v211z" />
    <glyph glyph-name="questiondown" unicode="&#xbf;" 
d="M817 1404h-325v325h325v-325zM120 345q0 249 199 447t199 345v45h283v-69q0 -245 -199 -442t-199 -333v-190q0 -133 122 -133h2q123 0 123 133v263h283v-263q0 -413 -407 -413q-406 0 -406 413v197z" />
    <glyph glyph-name="Agrave" unicode="&#xc0;" horiz-adv-x="1051" 
d="M939 696l92 -696h-286l-55 416h-289l-56 -416h-285l92 693l200 1269h388zM653 696l-108 816l-108 -816h216zM215 2291h222l142 -253h-157z" />
    <glyph glyph-name="Aacute" unicode="&#xc1;" horiz-adv-x="1051" 
d="M939 696l92 -696h-286l-55 416h-289l-56 -416h-285l92 693l200 1269h388zM653 696l-108 816l-108 -816h216zM537 2038h-157l142 253h222z" />
    <glyph glyph-name="Acircumflex" unicode="&#xc2;" horiz-adv-x="1051" 
d="M939 696l92 -696h-286l-55 416h-289l-56 -416h-285l92 693l200 1269h388zM653 696l-108 816l-108 -816h216zM198 2039l214 252h264l218 -252h-214l-136 93l-135 -93h-211z" />
    <glyph glyph-name="Atilde" unicode="&#xc3;" horiz-adv-x="1051" 
d="M939 696l92 -696h-286l-55 416h-289l-56 -416h-285l92 693l200 1269h388zM653 696l-108 816l-108 -816h216zM339 2006l-137 73l35 71q67 135 174 141h7q67 0 173 -66q51 -32 84 -32q28 0 43 23l41 67l130 -86l-41 -68q-64 -102 -158 -107h-7q-67 0 -171 66q-66 41 -79 43
h-4q-28 0 -55 -54z" />
    <glyph glyph-name="Adieresis" unicode="&#xc4;" horiz-adv-x="1051" 
d="M939 696l92 -696h-286l-55 416h-289l-56 -416h-285l92 693l200 1269h388zM653 696l-108 816l-108 -816h216zM226 2281h242v-242h-242v242zM622 2281h243v-242h-243v242z" />
    <glyph glyph-name="Aring" unicode="&#xc5;" horiz-adv-x="1091" 
d="M653 696l-108 816l-108 -816h216zM545 2174q-80 0 -80 -80q0 -81 80 -81q81 0 81 81q0 80 -81 80zM709 1962h31l199 -1266l92 -696h-286l-55 416h-289l-56 -416h-285l92 693l200 1269h30q-35 48 -35 132q0 198 198 198q199 0 199 -198q0 -84 -35 -132z" />
    <glyph glyph-name="AE" unicode="&#xc6;" horiz-adv-x="1478" 
d="M551 416h-150l-56 -416h-285l92 693l200 1269h933v-279h-451v-562h388v-280h-388v-562h451v-279h-734v416zM551 696v771l-6 45l-108 -816h114z" />
    <glyph glyph-name="Ccedilla" unicode="&#xc7;" horiz-adv-x="1043" 
d="M456 -29q-336 34 -336 410v1200q0 412 406 412q407 0 407 -412v-264h-283v264q0 132 -123 133h-2q-122 0 -122 -133v-1200q0 -133 123 -133q124 0 124 133v264h283v-264q0 -389 -362 -412l-20 -55q37 20 69 20q31 0 58 -20q28 -20 28 -70v-99q0 -85 -104 -93
q-14 -2 -34 -2q-9 0 -20 1q-118 3 -118 94v29h118v-29q0 -15 20 -15t20 15v99q0 17 -19 18h-1q-17 0 -24 -17h-114z" />
    <glyph glyph-name="Egrave" unicode="&#xc8;" horiz-adv-x="944" 
d="M130 1962h734v-279h-451v-562h388v-280h-388v-562h451v-279h-734v1962zM166 2291h222l142 -253h-157z" />
    <glyph glyph-name="Eacute" unicode="&#xc9;" horiz-adv-x="944" 
d="M130 1962h734v-279h-451v-562h388v-280h-388v-562h451v-279h-734v1962zM489 2038h-157l142 253h222z" />
    <glyph glyph-name="Ecircumflex" unicode="&#xca;" horiz-adv-x="944" 
d="M108 1962h734v-279h-451v-562h388v-280h-388v-562h451v-279h-734v1962zM127 2039l214 252h264l218 -252h-214l-136 93l-135 -93h-211z" />
    <glyph glyph-name="Edieresis" unicode="&#xcb;" horiz-adv-x="944" 
d="M130 1962h734v-279h-451v-562h388v-280h-388v-562h451v-279h-734v1962zM178 2281h242v-242h-242v242zM574 2281h243v-242h-243v242z" />
    <glyph glyph-name="Igrave" unicode="&#xcc;" horiz-adv-x="553" 
d="M135 1962h283v-1962h-283v1962zM-54 2291h222l142 -253h-157z" />
    <glyph glyph-name="Iacute" unicode="&#xcd;" horiz-adv-x="553" 
d="M135 1962h283v-1962h-283v1962zM268 2038h-157l142 253h222z" />
    <glyph glyph-name="Icircumflex" unicode="&#xce;" horiz-adv-x="553" 
d="M95 1962h283v-1962h-283v1962zM-112 2039l214 252h264l218 -252h-214l-136 93l-135 -93h-211z" />
    <glyph glyph-name="Idieresis" unicode="&#xcf;" horiz-adv-x="553" 
d="M135 1962h283v-1962h-283v1962zM-43 2281h242v-242h-242v242zM353 2281h243v-242h-243v242z" />
    <glyph glyph-name="Eth" unicode="&#xd0;" horiz-adv-x="1115" 
d="M465 876v-597h124q123 0 123 133v1137q0 134 -123 134h-124v-596h98v-211h-98zM182 1087v875l436 -1q377 0 377 -412v-1137q0 -411 -377 -411q-6 0 -18 -1h-418v876h-124v211h124z" />
    <glyph glyph-name="Ntilde" unicode="&#xd1;" horiz-adv-x="1073" 
d="M130 1962h283l268 -1138v1138h262v-1962h-283l-258 1102v-1102h-272v1962zM330 2006l-137 73l35 71q67 135 174 141h7q67 0 173 -66q51 -32 84 -32q28 0 43 23l41 67l130 -86l-41 -68q-64 -102 -158 -107h-7q-67 0 -171 66q-66 41 -79 43h-4q-28 0 -55 -54z" />
    <glyph glyph-name="Ograve" unicode="&#xd2;" horiz-adv-x="1033" 
d="M933 381q0 -412 -407 -413q-406 0 -406 413v1200q0 412 406 412q407 0 407 -412v-1200zM650 1581q0 132 -123 133h-2q-122 0 -122 -133v-1200q0 -133 123 -133q124 0 124 133v1200zM196 2291h222l142 -253h-157z" />
    <glyph glyph-name="Oacute" unicode="&#xd3;" horiz-adv-x="1033" 
d="M933 381q0 -412 -407 -413q-406 0 -406 413v1200q0 412 406 412q407 0 407 -412v-1200zM650 1581q0 132 -123 133h-2q-122 0 -122 -133v-1200q0 -133 123 -133q124 0 124 133v1200zM518 2038h-157l142 253h222z" />
    <glyph glyph-name="Ocircumflex" unicode="&#xd4;" horiz-adv-x="1033" 
d="M933 381q0 -412 -407 -413q-406 0 -406 413v1200q0 412 406 412q407 0 407 -412v-1200zM650 1581q0 132 -123 133h-2q-122 0 -122 -133v-1200q0 -133 123 -133q124 0 124 133v1200zM179 2039l214 252h264l218 -252h-214l-136 93l-135 -93h-211z" />
    <glyph glyph-name="Otilde" unicode="&#xd5;" horiz-adv-x="1033" 
d="M933 381q0 -412 -407 -413q-406 0 -406 413v1200q0 412 406 412q407 0 407 -412v-1200zM650 1581q0 132 -123 133h-2q-122 0 -122 -133v-1200q0 -133 123 -133q124 0 124 133v1200zM320 2006l-137 73l35 71q67 135 174 141h7q67 0 173 -66q51 -32 84 -32q28 0 43 23
l41 67l130 -86l-41 -68q-64 -102 -158 -107h-7q-67 0 -171 66q-66 41 -79 43h-4q-28 0 -55 -54z" />
    <glyph glyph-name="Odieresis" unicode="&#xd6;" horiz-adv-x="1033" 
d="M933 381q0 -412 -407 -413q-406 0 -406 413v1200q0 412 406 412q407 0 407 -412v-1200zM650 1581q0 132 -123 133h-2q-122 0 -122 -133v-1200q0 -133 123 -133q124 0 124 133v1200zM207 2281h242v-242h-242v242zM603 2281h243v-242h-243v242z" />
    <glyph glyph-name="multiply" unicode="&#xd7;" horiz-adv-x="1047" 
d="M524 817l-203 -203l-165 165l204 203l-203 203l164 164l203 -203l203 203l164 -165l-203 -202l203 -203l-164 -164z" />
    <glyph glyph-name="Oslash" unicode="&#xd8;" 
d="M418 303q29 -55 108 -55q124 0 124 133v878zM403 819l210 868q-31 27 -86 27h-2q-122 0 -122 -133v-762zM808 1911q125 -102 125 -330v-1200q0 -412 -407 -413q-105 0 -182 27l-49 -201h-140l67 277q-102 103 -102 310v1200q0 412 406 412q88 0 156 -19l31 127h141z" />
    <glyph glyph-name="Ugrave" unicode="&#xd9;" 
d="M933 381q0 -412 -407 -413q-406 0 -406 413v1581h283v-1581q0 -133 123 -133q124 0 124 133v1581h283v-1581zM196 2291h222l142 -253h-157z" />
    <glyph glyph-name="Uacute" unicode="&#xda;" 
d="M933 381q0 -412 -407 -413q-406 0 -406 413v1581h283v-1581q0 -133 123 -133q124 0 124 133v1581h283v-1581zM518 2038h-157l142 253h222z" />
    <glyph glyph-name="Ucircumflex" unicode="&#xdb;" 
d="M933 381q0 -412 -407 -413q-406 0 -406 413v1581h283v-1581q0 -133 123 -133q124 0 124 133v1581h283v-1581zM179 2039l214 252h264l218 -252h-214l-136 93l-135 -93h-211z" />
    <glyph glyph-name="Udieresis" unicode="&#xdc;" 
d="M933 381q0 -412 -407 -413q-406 0 -406 413v1581h283v-1581q0 -133 123 -133q124 0 124 133v1581h283v-1581zM207 2281h242v-242h-242v242zM603 2281h243v-242h-243v242z" />
    <glyph glyph-name="Yacute" unicode="&#xdd;" horiz-adv-x="1066" 
d="M360 1962l193 -765l193 765h300l-343 -1113l-8 -24v-825h-283v825l-9 24l-343 1113h300zM545 2038h-157l142 253h222z" />
    <glyph glyph-name="Thorn" unicode="&#xde;" horiz-adv-x="1018" 
d="M413 1635h92q6 0 18 -1h19q376 0 376 -412v-295q0 -304 -270 -392q-66 -21 -190 -21h-45v-841h-283v2289h283v-327zM413 1356v-563h64q59 0 82 9q76 31 76 125v295q0 134 -123 134h-99z" />
    <glyph glyph-name="germandbls" unicode="&#xdf;" 
d="M943 1254q0 -193 -156 -273q156 -79 156 -273v-508q0 -411 -377 -411l-28 -1v279q122 0 122 133v508q0 94 -77 125q-23 9 -82 9h-88v-842h-283v1550q0 412 406 412q407 0 407 -412v-296zM413 1121h88q59 0 82 9q77 30 77 124v296q0 132 -123 133h-2q-122 0 -122 -133
v-429z" />
    <glyph glyph-name="agrave" unicode="&#xe0;" horiz-adv-x="1051" 
d="M939 615l92 -615h-286l-55 368h-289l-56 -368h-285l92 613l200 1121h388zM653 615l-108 722l-108 -722h216zM215 2058h222l142 -253h-157z" />
    <glyph glyph-name="aacute" unicode="&#xe1;" horiz-adv-x="1051" 
d="M939 615l92 -615h-286l-55 368h-289l-56 -368h-285l92 613l200 1121h388zM653 615l-108 722l-108 -722h216zM537 1805h-157l142 253h222z" />
    <glyph glyph-name="acircumflex" unicode="&#xe2;" horiz-adv-x="1051" 
d="M939 615l92 -615h-286l-55 368h-289l-56 -368h-285l92 613l200 1121h388zM653 615l-108 722l-108 -722h216zM198 1806l214 252h264l218 -252h-214l-136 93l-135 -93h-211z" />
    <glyph glyph-name="atilde" unicode="&#xe3;" horiz-adv-x="1051" 
d="M939 615l92 -615h-286l-55 368h-289l-56 -368h-285l92 613l200 1121h388zM653 615l-108 722l-108 -722h216zM339 1773l-137 73l35 71q67 135 174 141h7q67 0 173 -66q51 -32 84 -32q28 0 43 23l41 67l130 -86l-41 -68q-64 -102 -158 -107h-7q-67 0 -171 66q-66 41 -79 43
h-4q-28 0 -55 -54z" />
    <glyph glyph-name="adieresis" unicode="&#xe4;" horiz-adv-x="1051" 
d="M939 615l92 -615h-286l-55 368h-289l-56 -368h-285l92 613l200 1121h388zM653 615l-108 722l-108 -722h216zM226 2048h242v-242h-242v242zM622 2048h243v-242h-243v242z" />
    <glyph glyph-name="aring" unicode="&#xe5;" horiz-adv-x="1091" 
d="M653 614l-108 718l-108 -718h216zM545 1941q-80 0 -80 -80q0 -81 80 -81q81 0 81 81q0 80 -81 80zM709 1729h31l199 -1115l92 -614h-286l-55 368h-289l-56 -368h-285l92 611l200 1118h30q-35 48 -35 132q0 198 198 198q199 0 199 -198q0 -84 -35 -132z" />
    <glyph glyph-name="ae" unicode="&#xe6;" horiz-adv-x="1568" 
d="M552 368h-151l-56 -368h-285l92 611l200 1118h934v-246h-451v-495h388v-246h-388v-496h451v-246h-734v368zM552 614v671l-7 47l-108 -718h115z" />
    <glyph glyph-name="ccedilla" unicode="&#xe7;" horiz-adv-x="1043" 
d="M417 -19q-297 45 -297 355v1057q0 364 406 364q407 0 407 -364v-232h-283v232q0 117 -123 118q-124 0 -124 -118v-1057q0 -117 123 -117q124 0 124 117v233h283v-233q0 -360 -401 -363l-21 -59q37 20 69 20q31 0 57 -20q28 -20 28 -70v-99q0 -85 -103 -93q-15 -2 -34 -2
q-10 0 -20 1q-119 3 -119 94v29h118v-29q0 -15 20 -15t20 15v99q0 17 -18 18h-2q-17 0 -24 -17h-113z" />
    <glyph glyph-name="egrave" unicode="&#xe8;" horiz-adv-x="944" 
d="M130 1734h734v-246h-451v-497h388v-248h-388v-496h451v-247h-734v1734zM166 2058h222l142 -253h-157z" />
    <glyph glyph-name="eacute" unicode="&#xe9;" horiz-adv-x="944" 
d="M130 1734h734v-246h-451v-497h388v-248h-388v-496h451v-247h-734v1734zM489 1805h-157l142 253h222z" />
    <glyph glyph-name="ecircumflex" unicode="&#xea;" horiz-adv-x="944" 
d="M108 1734h734v-246h-451v-497h388v-248h-388v-496h451v-247h-734v1734zM127 1806l214 252h264l218 -252h-214l-136 93l-135 -93h-211z" />
    <glyph glyph-name="edieresis" unicode="&#xeb;" horiz-adv-x="944" 
d="M130 1734h734v-246h-451v-497h388v-248h-388v-496h451v-247h-734v1734zM178 2048h242v-242h-242v242zM574 2048h243v-242h-243v242z" />
    <glyph glyph-name="igrave" unicode="&#xec;" horiz-adv-x="514" 
d="M135 1729h283v-1729h-283v1729zM-54 2058h222l142 -253h-157z" />
    <glyph glyph-name="iacute" unicode="&#xed;" horiz-adv-x="514" 
d="M135 1729h283v-1729h-283v1729zM268 1805h-157l142 253h222z" />
    <glyph glyph-name="icircumflex" unicode="&#xee;" horiz-adv-x="514" 
d="M95 1729h283v-1729h-283v1729zM-112 1806l214 252h264l218 -252h-214l-136 93l-135 -93h-211z" />
    <glyph glyph-name="idieresis" unicode="&#xef;" horiz-adv-x="514" 
d="M135 1729h283v-1729h-283v1729zM-43 2048h242v-242h-242v242zM353 2048h243v-242h-243v242z" />
    <glyph glyph-name="eth" unicode="&#xf0;" 
d="M339 1329l-138 164l200 168q-61 38 -175 82l69 222q203 -60 309 -134l167 140l137 -164l-149 -125q174 -231 174 -630v-639q0 -413 -406 -413q-407 0 -407 413v365q0 392 351 392q105 0 179 -59q0 248 -96 399zM403 413q0 -133 124 -133q123 0 123 133v365q0 129 -99 133
q-15 1 -28 1q-53 0 -76 -10q-44 -19 -44 -124v-365z" />
    <glyph glyph-name="ntilde" unicode="&#xf1;" horiz-adv-x="1073" 
d="M130 1734h283l268 -1006v1006h262v-1734h-283l-258 974v-974h-272v1734zM330 1773l-137 73l35 71q67 135 174 141h7q67 0 173 -66q51 -32 84 -32q28 0 43 23l41 67l130 -86l-41 -68q-64 -102 -158 -107h-7q-67 0 -171 66q-66 41 -79 43h-4q-28 0 -55 -54z" />
    <glyph glyph-name="ograve" unicode="&#xf2;" horiz-adv-x="1033" 
d="M933 333q0 -364 -407 -365q-406 0 -406 365v1061q0 364 406 364q407 0 407 -364v-1061zM650 1394q0 117 -123 117h-2q-122 0 -122 -117v-1061q0 -117 123 -117q124 0 124 117v1061zM196 2058h222l142 -253h-157z" />
    <glyph glyph-name="oacute" unicode="&#xf3;" horiz-adv-x="1033" 
d="M933 333q0 -364 -407 -365q-406 0 -406 365v1061q0 364 406 364q407 0 407 -364v-1061zM650 1394q0 117 -123 117h-2q-122 0 -122 -117v-1061q0 -117 123 -117q124 0 124 117v1061zM518 1805h-157l142 253h222z" />
    <glyph glyph-name="ocircumflex" unicode="&#xf4;" horiz-adv-x="1033" 
d="M933 333q0 -364 -407 -365q-406 0 -406 365v1061q0 364 406 364q407 0 407 -364v-1061zM650 1394q0 117 -123 117h-2q-122 0 -122 -117v-1061q0 -117 123 -117q124 0 124 117v1061zM179 1806l214 252h264l218 -252h-214l-136 93l-135 -93h-211z" />
    <glyph glyph-name="otilde" unicode="&#xf5;" horiz-adv-x="1033" 
d="M933 333q0 -364 -407 -365q-406 0 -406 365v1061q0 364 406 364q407 0 407 -364v-1061zM650 1394q0 117 -123 117h-2q-122 0 -122 -117v-1061q0 -117 123 -117q124 0 124 117v1061zM320 1773l-137 73l35 71q67 135 174 141h7q67 0 173 -66q51 -32 84 -32q28 0 43 23
l41 67l130 -86l-41 -68q-64 -102 -158 -107h-7q-67 0 -171 66q-66 41 -79 43h-4q-28 0 -55 -54z" />
    <glyph glyph-name="odieresis" unicode="&#xf6;" horiz-adv-x="1033" 
d="M933 333q0 -364 -407 -365q-406 0 -406 365v1061q0 364 406 364q407 0 407 -364v-1061zM650 1394q0 117 -123 117h-2q-122 0 -122 -117v-1061q0 -117 123 -117q124 0 124 117v1061zM207 2048h242v-242h-242v242zM603 2048h243v-242h-243v242z" />
    <glyph glyph-name="divide" unicode="&#xf7;" horiz-adv-x="1045" 
d="M925 1100v-234h-805v234h805zM360 1648h324v-324h-324v324zM360 644h324v-325h-324v325z" />
    <glyph glyph-name="oslash" unicode="&#xf8;" 
d="M434 248q31 -29 92 -29q124 0 124 117v619zM403 612l246 805q-12 93 -122 94q-124 0 -124 -118v-781zM859 1638q74 -89 74 -245v-1057q0 -363 -407 -363q-96 0 -170 20l-98 -320l-139 9l114 372q-113 91 -113 282v1057q0 364 406 364q128 0 216 -36l70 231l140 -9z" />
    <glyph glyph-name="ugrave" unicode="&#xf9;" 
d="M933 333q0 -364 -407 -365q-406 0 -406 365v1398h283v-1398q0 -117 123 -117q124 0 124 117v1398h283v-1398zM196 2058h222l142 -253h-157z" />
    <glyph glyph-name="uacute" unicode="&#xfa;" 
d="M933 333q0 -364 -407 -365q-406 0 -406 365v1398h283v-1398q0 -117 123 -117q124 0 124 117v1398h283v-1398zM518 1805h-157l142 253h222z" />
    <glyph glyph-name="ucircumflex" unicode="&#xfb;" 
d="M933 333q0 -364 -407 -365q-406 0 -406 365v1398h283v-1398q0 -117 123 -117q124 0 124 117v1398h283v-1398zM179 1806l214 252h264l218 -252h-214l-136 93l-135 -93h-211z" />
    <glyph glyph-name="udieresis" unicode="&#xfc;" 
d="M933 333q0 -364 -407 -365q-406 0 -406 365v1398h283v-1398q0 -117 123 -117q124 0 124 117v1398h283v-1398zM207 2048h242v-242h-242v242zM603 2048h243v-242h-243v242z" />
    <glyph glyph-name="yacute" unicode="&#xfd;" horiz-adv-x="1066" 
d="M360 1734l193 -676l193 676h300l-343 -983l-8 -22v-729h-283v729l-9 22l-343 983h300zM545 1805h-157l142 253h222z" />
    <glyph glyph-name="thorn" unicode="&#xfe;" horiz-adv-x="1010" 
d="M413 1635h92q6 0 18 -1h19q376 0 376 -412v-295q0 -304 -270 -392q-66 -21 -190 -21h-45v-841h-283v2289h283v-327zM413 1356v-563h64q59 0 82 9q76 31 76 125v295q0 134 -123 134h-99z" />
    <glyph glyph-name="ydieresis" unicode="&#xff;" horiz-adv-x="1066" 
d="M360 1734l193 -676l193 676h300l-343 -983l-8 -22v-729h-283v729l-9 22l-343 983h300zM234 2048h242v-242h-242v242zM630 2048h243v-242h-243v242z" />
    <glyph glyph-name="dotlessi" unicode="&#x131;" horiz-adv-x="514" 
d="M135 1729h283v-1729h-283v1729z" />
    <glyph glyph-name="circumflex" unicode="&#x2c6;" horiz-adv-x="956" 
d="M130 1806l214 252h264l218 -252h-214l-136 93l-135 -93h-211z" />
    <glyph glyph-name="caron" unicode="&#x2c7;" horiz-adv-x="956" 
d="M341 2058l135 -93l136 93h214l-218 -252h-264l-214 252h211z" />
    <glyph glyph-name="uni02C9" unicode="&#x2c9;" horiz-adv-x="899" 
d="M130 1990h639v-185h-639v185z" />
    <glyph glyph-name="breve" unicode="&#x2d8;" horiz-adv-x="1026" 
d="M896 2055q-126 -268 -395 -268h-3q-272 2 -368 268h214q31 -108 168 -108h1q139 0 169 108h214z" />
    <glyph glyph-name="dotaccent" unicode="&#x2d9;" horiz-adv-x="503" 
d="M130 2053h243v-242h-243v242z" />
    <glyph glyph-name="ring" unicode="&#x2da;" horiz-adv-x="657" 
d="M527 1861q0 -199 -199 -199q-198 0 -198 199q0 198 198 198q199 0 199 -198zM328 1941q-80 0 -80 -80q0 -81 80 -81q81 0 81 81q0 80 -81 80z" />
    <glyph glyph-name="tilde" unicode="&#x2dc;" horiz-adv-x="947" 
d="M267 1773l-137 73l35 71q67 135 174 141h7q67 0 173 -66q51 -32 84 -32q28 0 43 23l41 67l130 -86l-41 -68q-64 -102 -158 -107h-7q-67 0 -171 66q-66 41 -79 43h-4q-28 0 -55 -54z" />
    <glyph glyph-name="hungarumlaut" unicode="&#x2dd;" horiz-adv-x="1024" 
d="M157 1805h-157l142 253h222zM521 1805h-157l142 253h222z" />
    <glyph glyph-name="endash" unicode="&#x2013;" horiz-adv-x="1172" 
d="M50 841v233h1060v-233h-1060z" />
    <glyph glyph-name="emdash" unicode="&#x2014;" horiz-adv-x="2048" 
d="M50 841v233h1963v-233h-1963z" />
    <glyph glyph-name="quoteleft" unicode="&#x2018;" horiz-adv-x="557" 
d="M480 1311h-350v288l107 364h184l-58 -327h117v-325z" />
    <glyph glyph-name="quoteright" unicode="&#x2019;" horiz-adv-x="610" 
d="M130 1963h350v-288l-107 -364h-184l58 327h-117v325z" />
    <glyph glyph-name="quotesinglbase" unicode="&#x201a;" horiz-adv-x="557" 
d="M120 325h351v-287l-108 -365h-183l58 327h-118v325z" />
    <glyph glyph-name="quotedblleft" unicode="&#x201c;" horiz-adv-x="1047" 
d="M480 1311h-350v288l107 364h184l-58 -327h117v-325zM970 1311h-350v288l107 364h184l-58 -327h117v-325z" />
    <glyph glyph-name="quotedblright" unicode="&#x201d;" horiz-adv-x="1100" 
d="M130 1963h350v-288l-107 -364h-184l58 327h-117v325zM620 1963h350v-288l-107 -364h-184l58 327h-117v325z" />
    <glyph glyph-name="quotedblbase" unicode="&#x201e;" horiz-adv-x="1100" 
d="M130 326h350v-288l-107 -364h-184l58 327h-117v325zM620 326h350v-288l-107 -364h-184l58 327h-117v325z" />
    <glyph glyph-name="dagger" unicode="&#x2020;" horiz-adv-x="1454" 
d="M810 1451l399 54q13 2 25 2q90 0 90 -141q0 -143 -98 -143q-12 0 -24 2l-387 56q27 -208 27 -508v-160q0 -298 26 -497q2 -13 2 -25q0 -90 -140 -91q-144 0 -144 100q0 10 2 22q28 188 28 465q0 51 -1 104q-1 43 -1 85q0 292 31 501l-399 -54q-13 -2 -25 -2
q-90 0 -91 141q0 143 98 143q12 0 24 -2l388 -57l-53 399q-3 14 -3 26q0 90 141 90q143 0 143 -98q0 -12 -2 -24z" />
    <glyph glyph-name="daggerdbl" unicode="&#x2021;" horiz-adv-x="1454" 
d="M866 1839q-37 -254 -37 -332q0 -29 5 -34q4 -4 30 -4q76 0 344 36q13 2 25 2q90 0 91 -141q0 -143 -98 -143q-12 0 -24 2l-388 56l16 -118q37 -29 37 -73q0 -8 -1 -17q-6 -41 -6 -87q0 -50 7 -104q2 -10 2 -19q0 -45 -44 -72l-16 -106l399 53q13 2 25 2q90 0 91 -140
q0 -144 -100 -144q-10 0 -22 2l-388 57l53 -399q2 -13 2 -25q0 -90 -140 -91q-144 0 -144 100q0 10 2 22l57 388l-399 -53q-14 -3 -26 -3q-89 0 -89 141q0 143 98 143q11 0 23 -2l388 -56l-16 118q-37 29 -37 74q0 8 1 17q6 41 6 86q0 50 -7 104q-2 10 -2 19q0 45 44 72
l16 107l-399 -54q-13 -2 -25 -2q-90 0 -90 141q0 143 98 143q11 0 23 -2l388 -57l-53 399q-2 14 -2 25q0 91 140 91q144 0 144 -100q0 -10 -2 -22z" />
    <glyph glyph-name="bullet" unicode="&#x2022;" horiz-adv-x="987" 
d="M751 1240q106 -106 106 -257q0 -150 -106 -257q-107 -106 -258 -106q-150 0 -257 106q-106 107 -106 257q0 151 106 257q107 107 257 107q151 0 258 -107z" />
    <glyph glyph-name="ellipsis" unicode="&#x2026;" horiz-adv-x="2048" 
d="M120 325h325v-325h-325v325zM803 325h325v-325h-325v325zM1486 325h325v-325h-325v325z" />
    <glyph glyph-name="guilsinglleft" unicode="&#x2039;" horiz-adv-x="816" 
d="M686 1179l-224 -190l224 -184v-320l-556 517l556 507v-330z" />
    <glyph glyph-name="guilsinglright" unicode="&#x203a;" horiz-adv-x="816" 
d="M130 1509l556 -507l-556 -517v320l224 184l-224 190v330z" />
    <glyph glyph-name="fraction" unicode="&#x2044;" horiz-adv-x="342" 
d="M615 1963l-722 -1963h-176l723 1963h175z" />
    <glyph glyph-name="fraction" unicode="&#x2215;" horiz-adv-x="342" 
d="M615 1963l-722 -1963h-176l723 1963h175z" />
    <glyph glyph-name="franc" unicode="&#x20a3;" horiz-adv-x="963" 
d="M169 596v1366h734v-279h-451v-562h388v-280h-388v-245h186v-211h-186v-385h-283v385h-119v211h119z" />
    <glyph glyph-name="lira" unicode="&#x20a4;" horiz-adv-x="1125" 
d="M252 1235v346q0 413 407 413q406 0 406 -413v-263h-283v263q0 133 -123 133h-2q-122 0 -122 -133v-346h332v-159h-332v-158h332v-159h-332v-207q0 -177 -62 -273h514v-279h-927v279h69q123 0 123 134v346h-192v159h192v158h-192v159h192z" />
    <glyph glyph-name="peseta" unicode="&#x20a7;" horiz-adv-x="2175" 
d="M385 1683v-562h58q53 0 73 8q69 31 69 125v295q0 134 -110 134h-90zM840 1483v-229q0 -304 -244 -392q-58 -21 -170 -21h-41v-841h-255v1962l371 -1q254 0 318 -232h724v-36q99 64 269 64q407 0 407 -364v-232h-283v232q0 117 -123 118q-124 0 -124 -118v-156
q0 -116 265 -283q265 -166 265 -399v-219q0 -363 -406 -363q-407 0 -407 363v233h283v-233q0 -117 124 -117q123 0 123 117v197q0 126 -265 293t-265 405v162q0 48 7 90h-135v-1483h-283v1483h-155z" />
    <glyph glyph-name="Euro" unicode="&#x20ac;" horiz-adv-x="1094" 
d="M171 1219v362q0 413 406 413q407 0 407 -413v-263h-283v263q0 133 -123 133h-2q-122 0 -122 -133v-362h382v-158h-382v-160h382v-158h-382v-362q0 -133 123 -133q124 0 124 133v264h283v-264q0 -412 -407 -412q-406 0 -406 412v362h-141v158h141v160h-141v158h141z" />
    <glyph glyph-name="uni2116" unicode="&#x2116;" horiz-adv-x="1850" 
d="M130 1962h283l268 -1138v1138h262v-1962h-283l-258 1102v-1102h-272v1962zM1730 1110q0 -218 -269 -218q-268 0 -268 218v634q0 218 268 218q269 0 269 -218v-634zM1543 1744q0 70 -81 71q-82 0 -82 -71v-634q0 -71 81 -71q82 0 82 71v634zM1203 506v175h516v-175h-516z
" />
    <glyph glyph-name="trademark" unicode="&#x2122;" horiz-adv-x="1108" 
d="M426 1729v-112h-119v-673h-128v673h-119v112h366zM756 1192l148 538h128v-785h-122v440l-109 -440h-87l-112 440v-440h-123v785h127z" />
    <glyph glyph-name="partialdiff" unicode="&#x2202;" 
d="M650 1111q0 468 -425 632l70 222q638 -188 638 -913v-639q0 -413 -407 -413q-406 0 -406 413v365q0 392 350 392q106 0 180 -59zM403 413q0 -133 124 -133q123 0 123 133v365q0 129 -100 133q-15 1 -28 1q-52 0 -75 -10q-44 -19 -44 -124v-365z" />
    <glyph glyph-name="minus" unicode="&#x2212;" horiz-adv-x="1045" 
d="M925 1100v-234h-805v234h805z" />
    <glyph glyph-name="approxequal" unicode="&#x2248;" horiz-adv-x="1100" 
d="M268 890l-168 109l54 83q99 154 232 154h10q88 -4 224 -106q68 -51 112 -51q31 0 50 24l62 78l156 -124l-62 -78q-90 -114 -204 -114h-12q-88 4 -222 105q-79 60 -96 63q-4 1 -9 1q-34 0 -73 -60zM268 519l-168 109l54 83q99 154 232 154h10q88 -4 224 -106
q68 -51 112 -51q31 0 50 24l62 78l156 -124l-62 -78q-90 -114 -204 -114h-12q-88 4 -222 105q-79 60 -96 63q-4 1 -9 1q-34 0 -73 -60z" />
    <glyph glyph-name="lessequal" unicode="&#x2264;" horiz-adv-x="1047" 
d="M120 1079l807 452v-275l-587 -320l587 -311v-274l-807 437v291zM925 234v-234h-805v234h805z" />
    <glyph glyph-name="greaterequal" unicode="&#x2265;" horiz-adv-x="1047" 
d="M927 788l-807 -437v274l587 311l-587 320v275l807 -452v-291zM925 234v-234h-805v234h805z" />
    <glyph glyph-name="uniF001" unicode="&#xf001;" horiz-adv-x="1472" 
d="M130 1734h734v-246h-451v-497h388v-248h-388v-743h-283v1734zM1059 1734h283v-1734h-283v1734z" />
    <glyph glyph-name="uniF001" unicode="&#xfb01;" horiz-adv-x="1472" 
d="M130 1734h734v-246h-451v-497h388v-248h-388v-743h-283v1734zM1059 1734h283v-1734h-283v1734z" />
    <glyph glyph-name="uniF002" unicode="&#xf002;" horiz-adv-x="1848" 
d="M130 1734h734v-246h-451v-497h388v-248h-388v-743h-283v1734zM1054 0v1734h283v-1487h451v-247h-734z" />
    <glyph glyph-name="uniF002" unicode="&#xfb02;" horiz-adv-x="1848" 
d="M130 1734h734v-246h-451v-497h388v-248h-388v-743h-283v1734zM1054 0v1734h283v-1487h451v-247h-734z" />
    <glyph glyph-name="OE" unicode="&#x152;" horiz-adv-x="1370" 
d="M710 0q-81 -32 -194 -32q-406 0 -406 413v1200q0 412 406 412q112 0 193 -31h651v-279h-444q7 -47 7 -102v-460h374v-280h-374v-460q0 -55 -7 -102h444v-279h-650zM626 307v1348q-27 58 -109 59h-2q-122 0 -122 -133v-1200q0 -133 123 -133q82 0 110 59z" />
    <glyph glyph-name="oe" unicode="&#x153;" horiz-adv-x="1590" 
d="M720 0q-84 -32 -204 -32q-406 0 -406 365v1061q0 364 406 364q105 0 182 -24h676v-246h-451v-497h388v-248h-388v-496h451v-247h-654zM640 1394q0 117 -123 117h-2q-122 0 -122 -117v-1061q0 -117 123 -117q124 0 124 117v1061z" />
    </font>
</defs>
</svg>
